<svg xmlns="http://www.w3.org/2000/svg" width="512" height="512" viewBox="0 0 512 512">
  <defs>
    <linearGradient id="eagleGrad" x1="0%" y1="0%" x2="100%" y2="100%">
      <stop offset="0%" style="stop-color:#00FF94;stop-opacity:1" />
      <stop offset="100%" style="stop-color:#00B8FF;stop-opacity:1" />
    </linearGradient>
    <filter id="glow">
      <feGaussianBlur stdDeviation="2" result="coloredBlur"/>
      <feMerge>
        <feMergeNode in="coloredBlur"/>
        <feMergeNode in="SourceGraphic"/>
      </feMerge>
    </filter>
  </defs>
  
  <!-- Background -->
  <rect width="512" height="512" fill="#1A1B26"/>
  
  <!-- Cyber circle -->
  <circle cx="256" cy="256" r="240" fill="none" stroke="url(#eagleGrad)" stroke-width="2" opacity="0.3"/>
  
  <!-- Binary code background -->
  <text fill="url(#eagleGrad)" font-family="monospace" font-size="14" opacity="0.1">
    <tspan x="50" y="40">01001000 01000001 01000011 01001011</tspan>
    <tspan x="50" y="60">01000101 01000001 01000111 01001100</tspan>
    <tspan x="50" y="80">01000101 01011000 01010000 01001100</tspan>
  </text>
  
  <!-- Eagle silhouette -->
  <path d="
    M256 100
    C 180 100, 120 150, 100 200
    C 80 250, 90 300, 120 350
    L 256 400
    L 392 350
    C 422 300, 432 250, 412 200
    C 392 150, 332 100, 256 100
    Z" 
    fill="url(#eagleGrad)" 
    opacity="0.8"
    filter="url(#glow)"
  />
  
  <!-- Eagle head detail -->
  <path d="
    M256 150
    C 236 150, 220 160, 210 180
    L 256 220
    L 302 180
    C 292 160, 276 150, 256 150
    Z"
    fill="#1A1B26"
  />
  
  <!-- Eagle wings -->
  <path d="
    M150 200
    C 130 220, 120 250, 130 280
    L 256 320
    L 382 280
    C 392 250, 382 220, 362 200
    L 256 240
    Z"
    fill="#1A1B26"
  />
  
  <!-- Circuit lines -->
  <path d="M256 240 L 256 320 M150 280 L 362 280" 
    stroke="url(#eagleGrad)" 
    stroke-width="2"
    fill="none"
    opacity="0.5"
  />
  
  <!-- Target circles -->
  <circle cx="256" cy="256" r="120" fill="none" stroke="url(#eagleGrad)" stroke-width="1" stroke-dasharray="4 4"/>
  <circle cx="256" cy="256" r="80" fill="none" stroke="url(#eagleGrad)" stroke-width="1" stroke-dasharray="4 4"/>
</svg> 